<svg width="131" height="138" viewBox="0 0 131 138" fill="none" xmlns="http://www.w3.org/2000/svg">
<path d="M38.653 11.0232C32.3509 11.1073 25.7967 16.2402 25.7967 23.8976V51.161L40.3335 36.0988C42.6863 33.5744 44.2829 29.4512 44.2829 25.1597V11.0232H38.653Z" fill="white"/>
<path d="M66.4663 15.9878C63.7774 18.7646 33.6113 50.8244 33.5273 51.161C31.9307 53.0963 29.2418 58.4817 28.2335 61.7634C26.889 66.0549 25.8807 71.2719 25.8807 75.2268V91.2146V94.328H44.3669V76.3207C44.3669 70.0097 45.8794 62.7732 49.4086 58.061C51.7614 54.6951 55.2065 52.339 59.576 49.6463C60.8364 49.0573 95.372 11.1073 95.372 11.1073H79.4067C75.3733 11.0232 69.9115 12.2012 66.4663 15.9878Z" fill="white"/>
<path d="M87.3894 27.6841L79.8268 35.7622L88.8178 33.0695C90.9185 33.911 95.288 37.5293 97.4727 40.5585L95.7922 50.2354L100.834 58.3976C100.162 62.2683 98.313 66.0549 96.9686 68.3268L88.2296 70.5146L86.297 73.2073L91.1706 78.6768C98.9852 73.7122 105.035 66.4756 105.035 54.611C105.119 42.578 98.145 32.228 87.3894 27.6841Z" fill="white"/>
<path d="M70.0795 51.161L70.1636 51.3293L70.2476 52.2549L70.3316 53.3488V53.6012L70.4997 55.6207L76.6337 62.4366L82.7678 62.5207L86.8012 52.1707C84.0282 49.8988 81.3393 47.5427 78.7344 45.3549C75.5414 46.8695 72.6844 48.7207 69.7434 50.9927L70.0795 51.161Z" fill="white"/>
<path d="M63.3573 55.9573C60.3323 56.7146 57.9795 57.8085 55.6267 60.3329C53.694 62.4366 53.442 64.2878 52.1815 69.6732L66.7184 85.7451C68.8191 88.2695 72.6004 91.2988 79.8268 91.2988H97.1366L63.4413 55.9573H63.3573Z" fill="white"/>
</svg>
